<svg id="Layer_1" viewBox="0 0 24 24" xmlns="http://www.w3.org/2000/svg" data-name="Layer 1"><path d="m21.936 3.435c-.041-.166-.164-.299-.326-.354-.132-.044-3.301-1.082-9.609-1.082s-9.478 1.039-9.61 1.083c-.162.054-.285.188-.327.354-.043.175-1.064 4.33-1.064 8.565s1.021 8.391 1.064 8.565c.042.165.165.299.327.353.132.045 3.3 1.082 9.609 1.082s9.478-1.037 9.609-1.082c.162-.054.285-.188.326-.353.043-.175 1.064-4.33 1.064-8.565s-1.021-8.39-1.064-8.565zm-18.966.518c.871-.239 3.904-.953 9.03-.953s8.159.714 9.029.953c.138.606.464 2.149.701 4.047h-19.46c.236-1.898.563-3.441.7-4.047zm18.059 16.094c-.87.238-3.903.953-9.029.953s-8.159-.715-9.03-.953c-.227-1-.97-4.547-.97-8.047 0-1.018.064-2.038.159-3h19.683c.095.962.159 1.982.159 3 0 3.5-.743 7.047-.971 8.047zm-6.509-7.526c-.104 2.385-1.014 4.138-1.053 4.212-.081.154-.238.255-.413.266-.177.012-.342-.071-.441-.215-.018-.026-.296-.435-.59-1.135-.287.696-.556 1.103-.573 1.129-.098.146-.267.231-.442.221-.176-.009-.334-.11-.416-.266-.039-.074-.949-1.827-1.052-4.212-.012-.276.202-.509.478-.521.272-.016.509.202.521.478.05 1.146.311 2.142.544 2.824.157-.375.324-.854.449-1.412.051-.229.253-.391.488-.391s.437.162.488.391c.127.567.3 1.052.463 1.43.235-.684.5-1.687.55-2.842.012-.276.235-.501.521-.478.276.012.49.245.479.521zm-6.03 0c-.103 2.385-1.014 4.138-1.052 4.212-.082.154-.238.255-.413.266-.172.012-.342-.071-.441-.215-.018-.026-.296-.435-.59-1.134-.287.695-.555 1.102-.573 1.128-.098.146-.267.231-.442.221-.176-.009-.334-.11-.416-.266-.039-.074-.949-1.827-1.052-4.212-.012-.276.202-.509.478-.521.285-.016.509.202.521.478.05 1.146.311 2.142.544 2.824.157-.375.324-.854.449-1.412.051-.229.253-.391.488-.391s.437.162.488.391c.127.567.3 1.052.462 1.43.235-.684.5-1.687.55-2.842.012-.276.248-.493.521-.478.276.012.49.245.478.521zm11.99 0c-.104 2.385-1.014 4.138-1.053 4.212-.081.154-.238.255-.413.266-.176.015-.343-.071-.44-.215-.019-.026-.297-.435-.591-1.134-.287.695-.555 1.102-.573 1.128-.097.146-.267.231-.441.221-.176-.009-.334-.11-.416-.266-.039-.074-.949-1.827-1.053-4.212-.012-.276.202-.509.479-.521.256-.024.509.202.521.478.049 1.146.31 2.142.544 2.824.157-.375.324-.854.448-1.412.052-.229.254-.391.488-.391s.437.162.488.391c.126.567.3 1.052.462 1.43.235-.684.5-1.687.55-2.842.012-.276.231-.501.521-.478.276.012.49.245.479.521zm-13.73-7.021c0-.415.335-.75.75-.75s.75.335.75.75-.335.75-.75.75-.75-.335-.75-.75zm-3 0c0-.415.335-.75.75-.75s.75.335.75.75-.335.75-.75.75-.75-.335-.75-.75z"/></svg>